<mxfile host="app.diagrams.net" modified="2021-09-22T00:47:47.781Z" agent="5.0 (Windows NT 10.0; Win64; x64) AppleWebKit/537.36 (KHTML, like Gecko) Chrome/93.0.4577.63 Safari/537.36" etag="_lavD1OyvAtBEq3P55NZ" version="15.2.9" type="github">
  <diagram id="EgmK-O5Wic99y0KzdjLw" name="Page-1">
    <mxGraphModel dx="958" dy="909" grid="1" gridSize="10" guides="1" tooltips="1" connect="1" arrows="1" fold="1" page="0" pageScale="1" pageWidth="827" pageHeight="1169" math="0" shadow="0">
      <root>
        <mxCell id="0" />
        <mxCell id="1" parent="0" />
        <mxCell id="e6JYHGaSsPT37CXOViZ4-1" value="" style="shape=internalStorage;whiteSpace=wrap;html=1;backgroundOutline=1;dx=70;dy=120;" parent="1" vertex="1">
          <mxGeometry x="70" y="40" width="1380" height="550" as="geometry" />
        </mxCell>
        <mxCell id="e6JYHGaSsPT37CXOViZ4-2" value="" style="shape=internalStorage;whiteSpace=wrap;html=1;backgroundOutline=1;dx=70;dy=200;" parent="1" vertex="1">
          <mxGeometry x="70" y="590" width="1380" height="200" as="geometry" />
        </mxCell>
        <mxCell id="e6JYHGaSsPT37CXOViZ4-15" style="edgeStyle=orthogonalEdgeStyle;rounded=0;orthogonalLoop=1;jettySize=auto;html=1;exitX=0.5;exitY=1;exitDx=0;exitDy=0;entryX=0.5;entryY=0;entryDx=0;entryDy=0;" parent="1" source="e6JYHGaSsPT37CXOViZ4-5" target="e6JYHGaSsPT37CXOViZ4-6" edge="1">
          <mxGeometry relative="1" as="geometry" />
        </mxCell>
        <mxCell id="e6JYHGaSsPT37CXOViZ4-5" value="Início" style="ellipse;whiteSpace=wrap;html=1;aspect=fixed;" parent="1" vertex="1">
          <mxGeometry x="414" y="-90" width="80" height="80" as="geometry" />
        </mxCell>
        <mxCell id="e6JYHGaSsPT37CXOViZ4-21" value="" style="edgeStyle=orthogonalEdgeStyle;rounded=0;orthogonalLoop=1;jettySize=auto;html=1;fontSize=22;" parent="1" source="e6JYHGaSsPT37CXOViZ4-6" target="e6JYHGaSsPT37CXOViZ4-20" edge="1">
          <mxGeometry relative="1" as="geometry" />
        </mxCell>
        <mxCell id="e6JYHGaSsPT37CXOViZ4-6" value="Requisita ao Almoxarifado&lt;br&gt;o material necessário, utilizando papel" style="rounded=0;whiteSpace=wrap;html=1;" parent="1" vertex="1">
          <mxGeometry x="394" y="80" width="120" height="60" as="geometry" />
        </mxCell>
        <mxCell id="e6JYHGaSsPT37CXOViZ4-14" value="Confeiteiro" style="text;html=1;strokeColor=none;fillColor=none;align=center;verticalAlign=middle;whiteSpace=wrap;rounded=0;" parent="1" vertex="1">
          <mxGeometry x="80" y="110" width="50" height="20" as="geometry" />
        </mxCell>
        <mxCell id="e6JYHGaSsPT37CXOViZ4-16" value="Recebimento de Matéria Prima atualmente da Dona Maria Bolos e Confeitos&lt;br&gt;&lt;br&gt;Breno - Luiz Carlos - Theodoro" style="text;html=1;strokeColor=none;fillColor=none;align=center;verticalAlign=middle;whiteSpace=wrap;rounded=0;fontSize=22;" parent="1" vertex="1">
          <mxGeometry x="280" y="-180" width="340" height="20" as="geometry" />
        </mxCell>
        <mxCell id="e6JYHGaSsPT37CXOViZ4-17" value="&lt;font style=&quot;font-size: 12px&quot;&gt;Ger. Almox&lt;/font&gt;" style="text;html=1;strokeColor=none;fillColor=none;align=center;verticalAlign=middle;whiteSpace=wrap;rounded=0;fontSize=22;" parent="1" vertex="1">
          <mxGeometry x="70" y="250" width="70" height="20" as="geometry" />
        </mxCell>
        <mxCell id="e6JYHGaSsPT37CXOViZ4-23" value="" style="edgeStyle=orthogonalEdgeStyle;rounded=0;orthogonalLoop=1;jettySize=auto;html=1;fontSize=22;entryX=0;entryY=0.5;entryDx=0;entryDy=0;" parent="1" source="e6JYHGaSsPT37CXOViZ4-20" target="e6JYHGaSsPT37CXOViZ4-40" edge="1">
          <mxGeometry relative="1" as="geometry">
            <mxPoint x="380" y="210" as="targetPoint" />
          </mxGeometry>
        </mxCell>
        <mxCell id="e6JYHGaSsPT37CXOViZ4-30" style="edgeStyle=orthogonalEdgeStyle;rounded=0;orthogonalLoop=1;jettySize=auto;html=1;exitX=0.5;exitY=1;exitDx=0;exitDy=0;entryX=0;entryY=0.5;entryDx=0;entryDy=0;fontSize=22;" parent="1" source="e6JYHGaSsPT37CXOViZ4-20" target="e6JYHGaSsPT37CXOViZ4-29" edge="1">
          <mxGeometry relative="1" as="geometry" />
        </mxCell>
        <mxCell id="e6JYHGaSsPT37CXOViZ4-20" value="Há o material&amp;nbsp; na quantidade requisitada?" style="rhombus;whiteSpace=wrap;html=1;rounded=0;" parent="1" vertex="1">
          <mxGeometry x="200" y="220" width="110" height="80" as="geometry" />
        </mxCell>
        <mxCell id="e6JYHGaSsPT37CXOViZ4-25" value="" style="edgeStyle=orthogonalEdgeStyle;rounded=0;orthogonalLoop=1;jettySize=auto;html=1;fontSize=22;entryX=0;entryY=0.5;entryDx=0;entryDy=0;" parent="1" target="e6JYHGaSsPT37CXOViZ4-39" edge="1">
          <mxGeometry relative="1" as="geometry">
            <mxPoint x="500" y="210" as="sourcePoint" />
            <mxPoint x="580" y="210" as="targetPoint" />
          </mxGeometry>
        </mxCell>
        <mxCell id="e6JYHGaSsPT37CXOViZ4-35" value="" style="edgeStyle=orthogonalEdgeStyle;rounded=0;orthogonalLoop=1;jettySize=auto;html=1;fontSize=22;" parent="1" edge="1">
          <mxGeometry relative="1" as="geometry">
            <mxPoint x="700" y="210" as="sourcePoint" />
            <mxPoint x="740" y="210" as="targetPoint" />
          </mxGeometry>
        </mxCell>
        <mxCell id="e6JYHGaSsPT37CXOViZ4-26" value="&lt;font style=&quot;font-size: 12px&quot;&gt;Sim&lt;/font&gt;" style="text;html=1;strokeColor=none;fillColor=none;align=center;verticalAlign=middle;whiteSpace=wrap;rounded=0;fontSize=22;" parent="1" vertex="1">
          <mxGeometry x="300" y="240" width="40" height="20" as="geometry" />
        </mxCell>
        <mxCell id="e6JYHGaSsPT37CXOViZ4-33" value="" style="edgeStyle=orthogonalEdgeStyle;rounded=0;orthogonalLoop=1;jettySize=auto;html=1;fontSize=22;" parent="1" source="e6JYHGaSsPT37CXOViZ4-29" target="e6JYHGaSsPT37CXOViZ4-32" edge="1">
          <mxGeometry relative="1" as="geometry" />
        </mxCell>
        <mxCell id="e6JYHGaSsPT37CXOViZ4-29" value="&lt;font style=&quot;font-size: 12px&quot;&gt;Entrega o Máximo Possível do Material&lt;/font&gt;" style="rounded=0;whiteSpace=wrap;html=1;fontSize=22;" parent="1" vertex="1">
          <mxGeometry x="380" y="270" width="120" height="60" as="geometry" />
        </mxCell>
        <mxCell id="e6JYHGaSsPT37CXOViZ4-31" value="&lt;font style=&quot;font-size: 12px&quot;&gt;Não&lt;/font&gt;" style="text;html=1;strokeColor=none;fillColor=none;align=center;verticalAlign=middle;whiteSpace=wrap;rounded=0;fontSize=22;" parent="1" vertex="1">
          <mxGeometry x="270" y="300" width="40" height="20" as="geometry" />
        </mxCell>
        <mxCell id="e6JYHGaSsPT37CXOViZ4-65" style="edgeStyle=orthogonalEdgeStyle;rounded=0;orthogonalLoop=1;jettySize=auto;html=1;exitX=1;exitY=0.5;exitDx=0;exitDy=0;entryX=0.5;entryY=1;entryDx=0;entryDy=0;fontSize=12;" parent="1" source="e6JYHGaSsPT37CXOViZ4-32" target="H-PilM61BBrHAov82kqw-1" edge="1">
          <mxGeometry relative="1" as="geometry">
            <mxPoint x="770" y="300" as="targetPoint" />
          </mxGeometry>
        </mxCell>
        <mxCell id="e6JYHGaSsPT37CXOViZ4-32" value="&lt;font style=&quot;font-size: 12px&quot;&gt;Marca na Nota a quantidade entregue&lt;/font&gt;" style="whiteSpace=wrap;html=1;rounded=0;fontSize=22;" parent="1" vertex="1">
          <mxGeometry x="580" y="270" width="120" height="60" as="geometry" />
        </mxCell>
        <mxCell id="e6JYHGaSsPT37CXOViZ4-63" style="edgeStyle=orthogonalEdgeStyle;rounded=0;orthogonalLoop=1;jettySize=auto;html=1;exitX=1;exitY=0.5;exitDx=0;exitDy=0;entryX=0;entryY=0.5;entryDx=0;entryDy=0;fontSize=12;" parent="1" source="e6JYHGaSsPT37CXOViZ4-34" target="e6JYHGaSsPT37CXOViZ4-62" edge="1">
          <mxGeometry relative="1" as="geometry" />
        </mxCell>
        <mxCell id="e6JYHGaSsPT37CXOViZ4-34" value="Guarda a Ficha no arquivo Kardex" style="whiteSpace=wrap;html=1;rounded=0;" parent="1" vertex="1">
          <mxGeometry x="740" y="180" width="120" height="60" as="geometry" />
        </mxCell>
        <mxCell id="e6JYHGaSsPT37CXOViZ4-36" value="&lt;font style=&quot;font-size: 12px&quot;&gt;Comprador&lt;/font&gt;" style="text;html=1;strokeColor=none;fillColor=none;align=center;verticalAlign=middle;whiteSpace=wrap;rounded=0;fontSize=22;" parent="1" vertex="1">
          <mxGeometry x="85" y="707.5" width="40" height="20" as="geometry" />
        </mxCell>
        <mxCell id="e6JYHGaSsPT37CXOViZ4-39" value="Dá baixa na requisição do Confeiteiro" style="whiteSpace=wrap;html=1;rounded=0;" parent="1" vertex="1">
          <mxGeometry x="580" y="180" width="120" height="60" as="geometry" />
        </mxCell>
        <mxCell id="e6JYHGaSsPT37CXOViZ4-40" value="&lt;span&gt;Entrega o material à confeitaria&lt;/span&gt;" style="whiteSpace=wrap;html=1;rounded=0;" parent="1" vertex="1">
          <mxGeometry x="380" y="180" width="120" height="60" as="geometry" />
        </mxCell>
        <mxCell id="e6JYHGaSsPT37CXOViZ4-49" value="" style="edgeStyle=orthogonalEdgeStyle;rounded=0;orthogonalLoop=1;jettySize=auto;html=1;fontSize=22;" parent="1" source="e6JYHGaSsPT37CXOViZ4-47" target="e6JYHGaSsPT37CXOViZ4-48" edge="1">
          <mxGeometry relative="1" as="geometry" />
        </mxCell>
        <mxCell id="e6JYHGaSsPT37CXOViZ4-47" value="&lt;font style=&quot;font-size: 12px&quot;&gt;Visita o Almoxarifado&lt;/font&gt;" style="rounded=0;whiteSpace=wrap;html=1;fontSize=22;" parent="1" vertex="1">
          <mxGeometry x="195" y="622.5" width="120" height="60" as="geometry" />
        </mxCell>
        <mxCell id="e6JYHGaSsPT37CXOViZ4-51" value="" style="edgeStyle=orthogonalEdgeStyle;rounded=0;orthogonalLoop=1;jettySize=auto;html=1;fontSize=22;" parent="1" source="e6JYHGaSsPT37CXOViZ4-48" target="e6JYHGaSsPT37CXOViZ4-50" edge="1">
          <mxGeometry relative="1" as="geometry" />
        </mxCell>
        <mxCell id="e6JYHGaSsPT37CXOViZ4-57" value="" style="edgeStyle=orthogonalEdgeStyle;rounded=0;orthogonalLoop=1;jettySize=auto;html=1;fontSize=22;entryX=0;entryY=0.5;entryDx=0;entryDy=0;" parent="1" source="e6JYHGaSsPT37CXOViZ4-48" target="e6JYHGaSsPT37CXOViZ4-61" edge="1">
          <mxGeometry relative="1" as="geometry">
            <mxPoint x="580" y="737.5588235294117" as="targetPoint" />
            <Array as="points">
              <mxPoint x="440" y="737.5" />
              <mxPoint x="590" y="737.5" />
            </Array>
          </mxGeometry>
        </mxCell>
        <mxCell id="e6JYHGaSsPT37CXOViZ4-48" value="&lt;span style=&quot;font-size: 12px&quot;&gt;É preciso repôr o estoque?&lt;br&gt;&lt;/span&gt;" style="rhombus;whiteSpace=wrap;html=1;rounded=0;fontSize=22;" parent="1" vertex="1">
          <mxGeometry x="380" y="612.5" width="120" height="80" as="geometry" />
        </mxCell>
        <mxCell id="e6JYHGaSsPT37CXOViZ4-55" value="" style="edgeStyle=orthogonalEdgeStyle;rounded=0;orthogonalLoop=1;jettySize=auto;html=1;fontSize=22;" parent="1" source="e6JYHGaSsPT37CXOViZ4-50" target="e6JYHGaSsPT37CXOViZ4-54" edge="1">
          <mxGeometry relative="1" as="geometry" />
        </mxCell>
        <mxCell id="e6JYHGaSsPT37CXOViZ4-50" value="&lt;font style=&quot;font-size: 12px&quot;&gt;Realiza o processo de Compra&lt;/font&gt;" style="whiteSpace=wrap;html=1;rounded=0;fontSize=12;" parent="1" vertex="1">
          <mxGeometry x="580" y="602.5" width="120" height="60" as="geometry" />
        </mxCell>
        <mxCell id="e6JYHGaSsPT37CXOViZ4-52" value="&lt;font style=&quot;font-size: 12px&quot;&gt;Sim&lt;/font&gt;" style="text;html=1;strokeColor=none;fillColor=none;align=center;verticalAlign=middle;whiteSpace=wrap;rounded=0;fontSize=22;" parent="1" vertex="1">
          <mxGeometry x="500" y="632.5" width="40" height="20" as="geometry" />
        </mxCell>
        <mxCell id="e6JYHGaSsPT37CXOViZ4-67" style="edgeStyle=orthogonalEdgeStyle;rounded=0;orthogonalLoop=1;jettySize=auto;html=1;exitX=1;exitY=0.5;exitDx=0;exitDy=0;entryX=0.5;entryY=1;entryDx=0;entryDy=0;fontSize=12;" parent="1" source="e6JYHGaSsPT37CXOViZ4-54" target="e6JYHGaSsPT37CXOViZ4-69" edge="1">
          <mxGeometry relative="1" as="geometry">
            <mxPoint x="1160" y="260" as="targetPoint" />
          </mxGeometry>
        </mxCell>
        <mxCell id="e6JYHGaSsPT37CXOViZ4-54" value="&lt;font style=&quot;font-size: 12px&quot;&gt;Entrega a nota fiscal para o Ger. Almox.&lt;/font&gt;" style="whiteSpace=wrap;html=1;rounded=0;fontSize=22;" parent="1" vertex="1">
          <mxGeometry x="740" y="602.5" width="120" height="60" as="geometry" />
        </mxCell>
        <mxCell id="e6JYHGaSsPT37CXOViZ4-58" value="&lt;font style=&quot;font-size: 12px&quot;&gt;Não&lt;/font&gt;" style="text;html=1;strokeColor=none;fillColor=none;align=center;verticalAlign=middle;whiteSpace=wrap;rounded=0;fontSize=22;" parent="1" vertex="1">
          <mxGeometry x="450" y="712.5" width="40" height="20" as="geometry" />
        </mxCell>
        <mxCell id="e6JYHGaSsPT37CXOViZ4-61" value="" style="ellipse;whiteSpace=wrap;html=1;aspect=fixed;fontSize=12;labelBackgroundColor=#000000;fillColor=#808080;" parent="1" vertex="1">
          <mxGeometry x="600" y="697.5" width="80" height="80" as="geometry" />
        </mxCell>
        <mxCell id="e6JYHGaSsPT37CXOViZ4-62" value="" style="ellipse;whiteSpace=wrap;html=1;aspect=fixed;fontSize=12;labelBackgroundColor=#000000;fillColor=#808080;" parent="1" vertex="1">
          <mxGeometry x="930" y="180" width="60" height="60" as="geometry" />
        </mxCell>
        <mxCell id="e6JYHGaSsPT37CXOViZ4-75" value="" style="edgeStyle=orthogonalEdgeStyle;rounded=0;orthogonalLoop=1;jettySize=auto;html=1;fontSize=12;" parent="1" source="e6JYHGaSsPT37CXOViZ4-69" target="e6JYHGaSsPT37CXOViZ4-74" edge="1">
          <mxGeometry relative="1" as="geometry" />
        </mxCell>
        <mxCell id="e6JYHGaSsPT37CXOViZ4-69" value="Chegou Entrega?" style="rhombus;whiteSpace=wrap;html=1;rounded=0;" parent="1" vertex="1">
          <mxGeometry x="225" y="430" width="110" height="80" as="geometry" />
        </mxCell>
        <mxCell id="e6JYHGaSsPT37CXOViZ4-70" style="edgeStyle=orthogonalEdgeStyle;rounded=0;orthogonalLoop=1;jettySize=auto;html=1;exitX=0.5;exitY=0;exitDx=0;exitDy=0;entryX=0.5;entryY=1;entryDx=0;entryDy=0;fontSize=12;" parent="1" source="e6JYHGaSsPT37CXOViZ4-69" target="e6JYHGaSsPT37CXOViZ4-69" edge="1">
          <mxGeometry relative="1" as="geometry">
            <Array as="points">
              <mxPoint x="280" y="410" />
              <mxPoint x="195" y="410" />
              <mxPoint x="195" y="510" />
            </Array>
          </mxGeometry>
        </mxCell>
        <mxCell id="e6JYHGaSsPT37CXOViZ4-77" value="" style="edgeStyle=orthogonalEdgeStyle;rounded=0;orthogonalLoop=1;jettySize=auto;html=1;fontSize=12;entryX=0;entryY=0.5;entryDx=0;entryDy=0;" parent="1" source="e6JYHGaSsPT37CXOViZ4-74" target="e6JYHGaSsPT37CXOViZ4-113" edge="1">
          <mxGeometry relative="1" as="geometry">
            <mxPoint x="535" y="420" as="targetPoint" />
          </mxGeometry>
        </mxCell>
        <mxCell id="e6JYHGaSsPT37CXOViZ4-91" style="edgeStyle=orthogonalEdgeStyle;rounded=0;orthogonalLoop=1;jettySize=auto;html=1;exitX=0.5;exitY=1;exitDx=0;exitDy=0;entryX=0;entryY=0.5;entryDx=0;entryDy=0;fontSize=12;" parent="1" source="e6JYHGaSsPT37CXOViZ4-74" target="e6JYHGaSsPT37CXOViZ4-90" edge="1">
          <mxGeometry relative="1" as="geometry" />
        </mxCell>
        <mxCell id="e6JYHGaSsPT37CXOViZ4-74" value="A entrega tem uma nota fiscal requisitante?" style="rhombus;whiteSpace=wrap;html=1;rounded=0;" parent="1" vertex="1">
          <mxGeometry x="385" y="430" width="110" height="80" as="geometry" />
        </mxCell>
        <mxCell id="e6JYHGaSsPT37CXOViZ4-83" value="" style="edgeStyle=orthogonalEdgeStyle;rounded=0;orthogonalLoop=1;jettySize=auto;html=1;fontSize=12;" parent="1" source="e6JYHGaSsPT37CXOViZ4-80" target="e6JYHGaSsPT37CXOViZ4-82" edge="1">
          <mxGeometry relative="1" as="geometry" />
        </mxCell>
        <mxCell id="e6JYHGaSsPT37CXOViZ4-80" value="Dá baixa na nota" style="whiteSpace=wrap;html=1;rounded=0;" parent="1" vertex="1">
          <mxGeometry x="1160" y="390" width="120" height="60" as="geometry" />
        </mxCell>
        <mxCell id="e6JYHGaSsPT37CXOViZ4-82" value="Guarda a Nota" style="whiteSpace=wrap;html=1;rounded=0;" parent="1" vertex="1">
          <mxGeometry x="1320" y="390" width="120" height="60" as="geometry" />
        </mxCell>
        <mxCell id="e6JYHGaSsPT37CXOViZ4-86" value="&lt;font style=&quot;font-size: 12px&quot;&gt;Sim&lt;/font&gt;" style="text;html=1;strokeColor=none;fillColor=none;align=center;verticalAlign=middle;whiteSpace=wrap;rounded=0;fontSize=22;" parent="1" vertex="1">
          <mxGeometry x="325" y="450" width="40" height="20" as="geometry" />
        </mxCell>
        <mxCell id="e6JYHGaSsPT37CXOViZ4-88" value="&lt;font style=&quot;font-size: 12px&quot;&gt;Sim&lt;/font&gt;" style="text;html=1;strokeColor=none;fillColor=none;align=center;verticalAlign=middle;whiteSpace=wrap;rounded=0;fontSize=22;" parent="1" vertex="1">
          <mxGeometry x="485" y="450" width="40" height="20" as="geometry" />
        </mxCell>
        <mxCell id="e6JYHGaSsPT37CXOViZ4-94" style="edgeStyle=orthogonalEdgeStyle;rounded=0;orthogonalLoop=1;jettySize=auto;html=1;exitX=1;exitY=0.5;exitDx=0;exitDy=0;fontSize=12;" parent="1" source="e6JYHGaSsPT37CXOViZ4-90" target="e6JYHGaSsPT37CXOViZ4-93" edge="1">
          <mxGeometry relative="1" as="geometry" />
        </mxCell>
        <mxCell id="e6JYHGaSsPT37CXOViZ4-90" value="&lt;span style=&quot;&quot;&gt;Recusa a Entrega&lt;/span&gt;" style="rounded=0;whiteSpace=wrap;html=1;labelBackgroundColor=#FFFFFF;fontSize=12;strokeColor=default;fillColor=#FFFFFF;" parent="1" vertex="1">
          <mxGeometry x="535" y="480" width="120" height="60" as="geometry" />
        </mxCell>
        <mxCell id="e6JYHGaSsPT37CXOViZ4-92" value="&lt;font style=&quot;font-size: 12px&quot;&gt;Não&lt;/font&gt;" style="text;html=1;strokeColor=none;fillColor=none;align=center;verticalAlign=middle;whiteSpace=wrap;rounded=0;fontSize=22;" parent="1" vertex="1">
          <mxGeometry x="445" y="510" width="40" height="20" as="geometry" />
        </mxCell>
        <mxCell id="e6JYHGaSsPT37CXOViZ4-93" value="" style="ellipse;whiteSpace=wrap;html=1;aspect=fixed;fontSize=12;labelBackgroundColor=#000000;fillColor=#808080;" parent="1" vertex="1">
          <mxGeometry x="860" y="480" width="60" height="60" as="geometry" />
        </mxCell>
        <mxCell id="e6JYHGaSsPT37CXOViZ4-98" style="edgeStyle=orthogonalEdgeStyle;rounded=0;orthogonalLoop=1;jettySize=auto;html=1;exitX=0.5;exitY=1;exitDx=0;exitDy=0;fontSize=12;entryX=1;entryY=0.5;entryDx=0;entryDy=0;" parent="1" source="e6JYHGaSsPT37CXOViZ4-82" target="e6JYHGaSsPT37CXOViZ4-93" edge="1">
          <mxGeometry relative="1" as="geometry">
            <mxPoint x="1015" y="510" as="sourcePoint" />
          </mxGeometry>
        </mxCell>
        <mxCell id="e6JYHGaSsPT37CXOViZ4-103" value="Não" style="text;html=1;strokeColor=none;fillColor=none;align=center;verticalAlign=middle;whiteSpace=wrap;rounded=0;labelBackgroundColor=#FFFFFF;fontSize=12;" parent="1" vertex="1">
          <mxGeometry x="245" y="410" width="40" height="20" as="geometry" />
        </mxCell>
        <mxCell id="e6JYHGaSsPT37CXOViZ4-108" value="" style="edgeStyle=orthogonalEdgeStyle;rounded=0;orthogonalLoop=1;jettySize=auto;html=1;fontSize=12;" parent="1" source="e6JYHGaSsPT37CXOViZ4-111" edge="1">
          <mxGeometry relative="1" as="geometry">
            <mxPoint x="1160" y="420" as="targetPoint" />
          </mxGeometry>
        </mxCell>
        <mxCell id="e6JYHGaSsPT37CXOViZ4-109" value="" style="edgeStyle=orthogonalEdgeStyle;rounded=0;orthogonalLoop=1;jettySize=auto;html=1;fontSize=12;" parent="1" edge="1">
          <mxGeometry relative="1" as="geometry">
            <mxPoint x="1280" y="419.9999999999998" as="sourcePoint" />
            <mxPoint x="1320" y="419.9999999999998" as="targetPoint" />
          </mxGeometry>
        </mxCell>
        <mxCell id="e6JYHGaSsPT37CXOViZ4-110" value="" style="edgeStyle=orthogonalEdgeStyle;rounded=0;orthogonalLoop=1;jettySize=auto;html=1;fontSize=12;" parent="1" source="e6JYHGaSsPT37CXOViZ4-112" target="e6JYHGaSsPT37CXOViZ4-111" edge="1">
          <mxGeometry relative="1" as="geometry" />
        </mxCell>
        <mxCell id="e6JYHGaSsPT37CXOViZ4-111" value="Guarda a entrega" style="whiteSpace=wrap;html=1;rounded=0;" parent="1" vertex="1">
          <mxGeometry x="1010" y="390" width="120" height="60" as="geometry" />
        </mxCell>
        <mxCell id="e6JYHGaSsPT37CXOViZ4-112" value="Recebe a Entrega" style="whiteSpace=wrap;html=1;rounded=0;" parent="1" vertex="1">
          <mxGeometry x="860" y="390" width="120" height="60" as="geometry" />
        </mxCell>
        <mxCell id="e6JYHGaSsPT37CXOViZ4-114" style="edgeStyle=orthogonalEdgeStyle;rounded=0;orthogonalLoop=1;jettySize=auto;html=1;exitX=1;exitY=0.5;exitDx=0;exitDy=0;fontSize=12;" parent="1" source="e6JYHGaSsPT37CXOViZ4-113" target="e6JYHGaSsPT37CXOViZ4-112" edge="1">
          <mxGeometry relative="1" as="geometry" />
        </mxCell>
        <mxCell id="e6JYHGaSsPT37CXOViZ4-116" style="edgeStyle=orthogonalEdgeStyle;rounded=0;orthogonalLoop=1;jettySize=auto;html=1;exitX=0.5;exitY=1;exitDx=0;exitDy=0;entryX=0.75;entryY=0;entryDx=0;entryDy=0;fontSize=12;" parent="1" source="e6JYHGaSsPT37CXOViZ4-113" target="e6JYHGaSsPT37CXOViZ4-90" edge="1">
          <mxGeometry relative="1" as="geometry" />
        </mxCell>
        <mxCell id="e6JYHGaSsPT37CXOViZ4-113" value="Tudo de &lt;br&gt;Acordo?" style="rhombus;whiteSpace=wrap;html=1;labelBackgroundColor=#FFFFFF;fontSize=12;strokeColor=default;fillColor=#FFFFFF;" parent="1" vertex="1">
          <mxGeometry x="690" y="380" width="90" height="80" as="geometry" />
        </mxCell>
        <mxCell id="e6JYHGaSsPT37CXOViZ4-117" value="&lt;font style=&quot;font-size: 12px&quot;&gt;Não&lt;/font&gt;" style="text;html=1;strokeColor=none;fillColor=none;align=center;verticalAlign=middle;whiteSpace=wrap;rounded=0;fontSize=22;" parent="1" vertex="1">
          <mxGeometry x="700" y="450" width="40" height="20" as="geometry" />
        </mxCell>
        <mxCell id="e6JYHGaSsPT37CXOViZ4-118" value="&lt;font style=&quot;font-size: 12px&quot;&gt;Sim&lt;/font&gt;" style="text;html=1;strokeColor=none;fillColor=none;align=center;verticalAlign=middle;whiteSpace=wrap;rounded=0;fontSize=22;" parent="1" vertex="1">
          <mxGeometry x="780" y="400" width="40" height="20" as="geometry" />
        </mxCell>
        <mxCell id="H-PilM61BBrHAov82kqw-3" style="edgeStyle=orthogonalEdgeStyle;rounded=0;orthogonalLoop=1;jettySize=auto;html=1;exitX=1;exitY=0.5;exitDx=0;exitDy=0;" parent="1" source="H-PilM61BBrHAov82kqw-1" target="H-PilM61BBrHAov82kqw-2" edge="1">
          <mxGeometry relative="1" as="geometry" />
        </mxCell>
        <mxCell id="H-PilM61BBrHAov82kqw-1" value="Pede o material ao Comprador" style="rounded=0;whiteSpace=wrap;html=1;" parent="1" vertex="1">
          <mxGeometry x="1050" y="80" width="120" height="60" as="geometry" />
        </mxCell>
        <mxCell id="H-PilM61BBrHAov82kqw-2" value="A" style="ellipse;whiteSpace=wrap;html=1;aspect=fixed;" parent="1" vertex="1">
          <mxGeometry x="1230" y="70" width="80" height="80" as="geometry" />
        </mxCell>
        <mxCell id="H-PilM61BBrHAov82kqw-5" style="edgeStyle=orthogonalEdgeStyle;rounded=0;orthogonalLoop=1;jettySize=auto;html=1;exitX=0;exitY=0.5;exitDx=0;exitDy=0;" parent="1" source="H-PilM61BBrHAov82kqw-4" target="e6JYHGaSsPT37CXOViZ4-50" edge="1">
          <mxGeometry relative="1" as="geometry">
            <Array as="points">
              <mxPoint x="710" y="738" />
              <mxPoint x="710" y="690" />
              <mxPoint x="640" y="690" />
            </Array>
          </mxGeometry>
        </mxCell>
        <mxCell id="H-PilM61BBrHAov82kqw-4" value="A" style="ellipse;whiteSpace=wrap;html=1;aspect=fixed;" parent="1" vertex="1">
          <mxGeometry x="810" y="698" width="80" height="80" as="geometry" />
        </mxCell>
      </root>
    </mxGraphModel>
  </diagram>
</mxfile>
